<?xml version="1.0" encoding="UTF-8"?>
<!DOCTYPE svg PUBLIC "-//W3C//DTD SVG 1.1//EN" "http://www.w3.org/Graphics/SVG/1.1/DTD/svg11.dtd">
<!-- Creator: CorelDRAW -->
<svg xmlns="http://www.w3.org/2000/svg" xml:space="preserve" width="300mm" height="300mm" version="1.1" style="shape-rendering:geometricPrecision; text-rendering:geometricPrecision; image-rendering:optimizeQuality; fill-rule:evenodd; clip-rule:evenodd"
viewBox="0 0 30000 30000"
 xmlns:xlink="http://www.w3.org/1999/xlink"
 xmlns:xodm="http://www.corel.com/coreldraw/odm/2003">
 <defs>
  <style type="text/css">
   <![CDATA[
    .fil0 {fill:none}
    .fil1 {fill:#FEFEFE}
   ]]>
  </style>
 </defs>
 <g id="Слой_x0020_1">
  <metadata id="CorelCorpID_0Corel-Layer"/>
  <polygon class="fil0" points="-0,0 30000,0 30000,30000 -0,30000 "/>
  <path class="fil1" d="M14389.03 22112.21c-163.54,-13.83 -325.6,-32.78 -485.82,-57.46 158.92,8.6 321.55,14.99 485.82,57.46zm-2386.93 -4551.44c-92.39,699.48 -154.3,1399.62 -315.21,2089.85 -43.05,184.64 -155.1,427.4 -107.02,622.84 -170.31,-273.38 -326.91,-551.34 -478.58,-813.3 -619.18,-1069.46 -1189.48,-2160.45 -1913.3,-3168.95 -202.4,-281.95 -569.45,-616.01 -596.83,-983.13 -40,-536.6 679.72,-743.01 1085.87,-671.6 492.62,86.66 983.11,408.52 1302.39,787.96 243.7,289.65 429.48,621.08 594.95,960.04 117.4,240.58 198.69,647.68 488.22,729.91 -23.12,151.97 -41.5,302.53 -60.49,446.38zm-315.68 2880.04c165.76,126.68 463.75,75.33 620.61,-24.68 240.79,-153.52 428.98,-430.62 514.26,-700.59 45.4,-143.71 71.5,-291.97 87.56,-441.44 -105.18,-149.4 -180.16,-326.93 -251.28,-485.14 -141.11,-313.76 -268.05,-632.11 -439.85,-931.95 -48.03,-83.84 -140.19,-186.79 -137.35,-289.25 4.17,-149.73 209.34,-186.44 319.8,-155.13 133.96,37.99 260.67,141.06 338.3,255.22 59.26,87.15 101.3,184.21 137.48,282.78 27.5,74.87 38.09,201.41 131.9,221.25 33.82,7.18 69.27,0.83 101.84,-10.84 140.56,-50.31 195.22,-184.92 258.86,-307.51 145.35,-280.04 229.83,-585.25 306.18,-889.87 38.87,-155.01 75.72,-310.59 118.54,-464.6 34.77,-125.12 62.85,-296.33 146.43,-399.28 49.5,-60.94 135.52,-99.64 205.51,-45.97 92.69,71.07 86.49,192.76 71.45,295.5 -26.55,181.51 -70.13,359.85 -95.4,541.26 -13.83,99.19 -26.85,198.52 -43.24,297.35 -13.76,83.01 -53.32,182.04 -36.29,266.52 7.87,39.12 33.44,77.28 71.81,88.34 56.72,16.34 112.76,-31.46 140.56,-83.54 110.51,-206.97 194.28,-433.48 326.51,-629.06 74.6,-110.37 130.94,-232.22 209.17,-340.24 72.54,-100.2 189.87,-248.39 332.16,-204.41 117.73,36.4 133.77,143.14 105.87,246.38 -24.75,91.63 -82.21,192.97 -131.82,273.5 -108.74,176.51 -210.41,357.29 -308.13,540.1 -55.51,103.86 -123.13,199.25 -172.91,306.99 -31.45,68.02 -39.08,159.46 17.64,208.54 147.91,127.91 351.85,-151.25 426.09,-248.92 164.42,-216.28 317.65,-441.51 491.84,-650.47 65.42,-78.49 228,-216.14 329.61,-117.9 128.43,124.25 -22.98,311.44 -94.12,422.47 -118.92,185.59 -241.2,369.44 -377.19,543.09 -71.28,91.02 -147.14,177.42 -225.49,262.35 -65.39,70.9 -149.42,139.71 -105.63,248.44 67.9,168.6 244.06,78.72 363.85,45.3 142.15,-39.67 657.22,-318.59 704.28,-70.95 22.65,119.01 -140.84,204.2 -222.72,263.41 -109.46,79.15 -228.09,144.37 -346.87,208.2 -138.97,74.7 -279.91,147.01 -410.17,236.46 -160.25,110.03 -278.59,262.7 -423.23,389.93 -86.8,76.33 -180.66,144.75 -279.89,204.15 221.46,304.83 419.69,627.26 612.31,950.88 167.66,281.67 331.67,565.59 506.48,842.92 142,225.35 298.01,545.13 522.84,698.15 133.1,90.57 324.89,115.93 430.78,-30.72 140.23,-194.23 56.34,-429.62 -33.68,-622.59 -159.06,-340.93 -349.71,-665.61 -506.19,-1007.11 -85.55,-186.74 -169.67,-374.2 -260.05,-558.67 -75.9,-155.01 -211.92,-326.2 -228.26,-502.19 -7.55,-81.49 20.23,-171.54 89.05,-215.83 101.84,-65.53 240.04,-4.64 325.34,81.31 338.96,341.52 636.93,737.13 1011.89,1043.5 211.54,172.87 393.97,379.08 611.27,545.22 201.52,154.11 519.26,376.15 772.89,205.93 209.89,-140.84 178.48,-359.99 62.88,-546.36 -102.57,-165.43 -275.11,-330.67 -420,-459.67 -317.58,-282.71 -623.76,-577.96 -923.4,-879.52 -170.24,-171.35 -359.21,-318.95 -520.48,-501.24 -101.86,-115.13 -170.66,-290.29 -88.15,-420.08 215.22,-338.39 780.24,89.9 983.66,238.07 450.36,328.04 884.01,680.29 1349.28,988.2 174.71,115.62 575.15,290.32 716.9,37.47 179.17,-319.71 -228.52,-598.3 -433.65,-774.48 -342.91,-294.56 -691.44,-583.73 -1060.84,-844.75 -193.63,-136.85 -393.52,-261.92 -597.46,-382.63 -170.22,-100.75 -375.81,-186.42 -353.81,-425.81 34.08,-371.24 433.08,-298.42 688.08,-303.32 302.63,-5.78 1478.73,238.83 1425.35,-275.35 -25.65,-247.14 -396.94,-318.19 -592.71,-386.3 -261.63,-91.02 -533.07,-149.3 -804.01,-204.75 -316.98,-64.87 -636.42,-123.91 -945.02,-222.93 -379.6,-121.78 -701.98,-352.04 -1061.05,-516.76 -372.73,-170.97 -773.01,-283.04 -1180.42,-329.88 -256.75,-29.51 -530.06,-19.33 -774.9,69.39 -67.4,24.42 -132.58,54.8 -193.88,91.65 223.39,-788.57 355.71,-1602.34 472.8,-2413.36 82.04,-568.22 156.72,-1137.62 253.2,-1703.64 78.42,-459.89 116,-1081.94 376.93,-1480.44 154.49,-235.92 447.71,-405.73 717.47,-239.59 357.27,219.98 379.67,657.11 363.61,1029.72 -28.35,658.31 -118.7,1311.56 -142.48,1969.04 -13,359.52 -23.18,719.25 -45.47,1078.34 -18.73,301.73 -123.75,669.99 -32,965.65 42.49,136.92 147.88,263.91 288.99,289.35 208.72,37.61 391.37,-153.71 471.64,-350.02 318.99,-780.1 535.29,-1620.13 936.09,-2367.49 226.11,-421.72 382.78,-877.82 622.67,-1292.49 222.51,-384.63 587.4,-957.18 1111.99,-852.17 434.07,86.88 530.44,462.5 468.61,841.58 -54.86,336.47 -222.96,719.65 -370.72,1025.64 -323.88,670.58 -620.89,1353.79 -903.08,2042.84 -160.29,391.52 -366.89,757.14 -505.34,1160.33 -87.44,254.65 -81.09,584.21 139.52,738.75 575.39,402.86 1201.78,-669.4 1431.32,-1045.69 508.23,-833.09 973.16,-1694.11 1518.99,-2504.64 91.12,-135.3 246.6,-319.37 426.22,-454.63 -1235.98,-2138.52 -3547.36,-3577.59 -6194.93,-3577.59 -3949.01,0 -7150.3,3201.3 -7150.3,7150.3 0,3361.18 2319.34,6180.18 5444.8,6945.07 -696.82,-272.72 -1195.08,-858.42 -1608.1,-1492.4zm10103.41 -7699.1c233.64,706.47 360.47,1461.6 360.47,2246.43 0,469.95 -45.83,929.11 -132.37,1373.74 -460.67,208.87 -909.69,480 -1123.96,564.2 -415.76,163.3 -1012.31,549.05 -1316.76,-28.57 -196.34,-372.49 78.73,-649.1 286.41,-926.41 248.82,-332.23 488.19,-668.8 709.51,-1020.17 422.26,-670.32 791.86,-1372.12 1148.73,-2078.88 20.6,-40.81 43.62,-84.46 67.97,-130.34zm-565.71 5767.69c-689.07,1215.57 -1723.83,2209.4 -2970.8,2847.73 182.29,-159.06 356.16,-327.71 520.47,-505.08 470.22,-507.57 837.08,-1096.53 1369.34,-1548.46 341.26,-289.75 710.18,-543.83 1080.99,-794.19z"/>
 </g>
</svg>
