<svg width="48" height="48" viewBox="0 0 48 48" fill="none" xmlns="http://www.w3.org/2000/svg">
<path d="M36.0074 25.9961H26.0074V35.9961C26.0074 36.5265 25.7967 37.0352 25.4217 37.4103C25.0466 37.7854 24.5379 37.9961 24.0074 37.9961C23.477 37.9961 22.9683 37.7854 22.5932 37.4103C22.2182 37.0352 22.0074 36.5265 22.0074 35.9961V25.9961H12.0074C11.477 25.9961 10.9683 25.7854 10.5932 25.4103C10.2182 25.0352 10.0074 24.5265 10.0074 23.9961C10.0074 23.4657 10.2182 22.957 10.5932 22.5819C10.9683 22.2068 11.477 21.9961 12.0074 21.9961H22.0074V11.9961C22.0074 11.4657 22.2182 10.957 22.5932 10.5819C22.9683 10.2068 23.477 9.99609 24.0074 9.99609C24.5379 9.99609 25.0466 10.2068 25.4217 10.5819C25.7967 10.957 26.0074 11.4657 26.0074 11.9961V21.9961H36.0074C36.5379 21.9961 37.0466 22.2068 37.4217 22.5819C37.7967 22.957 38.0074 23.4657 38.0074 23.9961C38.0074 24.5265 37.7967 25.0352 37.4217 25.4103C37.0466 25.7854 36.5379 25.9961 36.0074 25.9961Z" fill="#007932"/>
</svg>
